<?xml version="1.0" encoding="UTF-8"?>
<svg xmlns="http://www.w3.org/2000/svg" viewBox="-8 -8 1616 1616">
  <path fill="#988662" fill-rule="evenodd" d="M 292 500 A 8 8 0 0 1 300 492 L 700 492 A 8 8 0 0 1 708 500 L 708 562 C 708 592 708 592 738 592 L 862 592 C 892 592 892 592 892 562 L 892 500 A 8 8 0 0 1 900 492 L 1300 492 A 8 8 0 0 1 1308 500 L 1308 562 C 1308 592 1308 592 1338 592 L 1400 592 A 8 8 0 0 1 1408 600 L 1408 1000 A 8 8 0 0 1 1400 1008 L 1338 1008 C 1308 1008 1308 1008 1308 1038 L 1308 1100 A 8 8 0 0 1 1300 1108 L 900 1108 A 8 8 0 0 1 892 1100 L 892 1038 C 892 1008 892 1008 862 1008 L 838 1008 C 808 1008 808 1008 808 1038 L 808 1100 A 8 8 0 0 1 800 1108 L 200 1108 A 8 8 0 0 1 192 1100 L 192 900 A 8 8 0 0 1 200 892 L 262 892 C 292 892 292 892 292 862 L 292 800 A 8 8 0 0 1 300 792 L 362 792 C 392 792 392 792 392 762 L 392 700 A 8 8 0 0 1 400 692 L 662 692 C 692 692 692 692 692 662 L 692 638 C 692 608 692 608 662 608 L 338 608 C 308 608 308 608 308 638 L 308 700 A 8 8 0 0 1 300 708 L 200 708 A 8 8 0 0 1 192 700 L 192 600 A 8 8 0 0 1 200 592 L 262 592 C 292 592 292 592 292 562 Z M 938 608 C 908 608 908 608 908 638 L 908 962 C 908 992 908 992 938 992 L 1262 992 C 1292 992 1292 992 1292 962 L 1292 638 C 1292 608 1292 608 1262 608 Z M 738 708 C 708 708 708 708 708 738 L 708 800 A 8 8 0 0 1 700 808 L 438 808 C 408 808 408 808 408 838 L 408 900 A 8 8 0 0 1 400 908 L 338 908 C 308 908 308 908 308 938 L 308 984 A 8 8 0 0 0 316 992 L 762 992 C 792 992 792 992 792 962 L 792 716 A 8 8 0 0 0 784 708 Z M 1092 700 A 8 8 0 0 1 1100 692 L 1200 692 A 8 8 0 0 1 1208 700 L 1208 800 A 8 8 0 0 1 1200 808 L 1138 808 C 1108 808 1108 808 1108 838 L 1108 900 A 8 8 0 0 1 1100 908 L 1000 908 A 8 8 0 0 1 992 900 L 992 800 A 8 8 0 0 1 1000 792 L 1062 792 C 1092 792 1092 792 1092 762 Z"/>
</svg>